<?xml version="1.0" encoding="UTF-8" standalone="no"?>
<svg
   clip-rule="evenodd"
   fill-rule="evenodd"
   stroke-linejoin="round"
   stroke-miterlimit="1.414"
   viewBox="0 0 24 24"
   version="1.1"
   id="svg10"
   xmlns="http://www.w3.org/2000/svg"
   xmlns:svg="http://www.w3.org/2000/svg">
  <defs
     id="defs14" />
  <path
     d="M10 4H4c-1.11 0-2 .89-2 2v12c0 1.097.903 2 2 2h16c1.097 0 2-.903 2-2V8a2 2 0 00-2-2h-8l-2-2z"
     fill="#039BE5"
     fill-rule="nonzero"
     id="path2" />
  <path
     d="m 20.9,14.545 c 0,2.397933 -1.952067,4.35 -4.35,4.35 -2.397936,0 -4.35,-1.952067 -4.35,-4.35 0,-2.397936 1.952064,-4.35 4.35,-4.35 2.397933,0 4.35,1.952064 4.35,4.35 m -4.35,0.54375 h 2.175 v -1.0875 H 16.55 V 12.37 l -2.175,2.175 2.175,2.175 z"
     opacity="0.3"
     fill="#039BE5"
     id="path4"
     style="opacity:0.9" />
  <path
     d="m 20.91,14.55 c 0,2.40345 -1.95655,4.36 -4.36,4.36 -2.40345,0 -4.36,-1.95655 -4.36,-4.36 0,-2.40345 1.95655,-4.36 4.36,-4.36 2.40345,0 4.36,1.95655 4.36,4.36 m 1.09,0 C 22,11.5416 19.5584,9.1 16.55,9.1 c -3.0084,0 -5.45,2.4416 -5.45,5.45 0,3.0084 2.4416,5.45 5.45,5.45 3.0084,0 5.45,-2.4416 5.45,-5.45 z m -5.45,0.545 h 2.18 v -1.09 H 16.55 V 12.37 l -2.18,2.18 2.18,2.18 z"
     fill="#B3E5FC"
     id="path6"/>
</svg>
