<svg clip-rule="evenodd" stroke-linejoin="round" stroke-miterlimit="1.414" viewBox="0 0 24 24"
  xmlns="http://www.w3.org/2000/svg">
  <path
    d="M19 20H4a2 2 0 01-2-2V6c0-1.11.89-2 2-2h6l2 2h7c1.097 0 2 .903 2 2H4v10l2.14-8h17.07l-2.28 8.5c-.23.87-1.01 1.5-1.93 1.5z"
    fill="#039BE5" />
  <g fill="#b3e5fc" stroke-width=".664">
    <path
      d="m 20.9,14.545 c 0,2.397933 -1.952067,4.35 -4.35,4.35 -2.397936,0 -4.35,-1.952067 -4.35,-4.35 0,-2.397936 1.952064,-4.35 4.35,-4.35 2.397933,0 4.35,1.952064 4.35,4.35 m -4.35,0.54375 h 2.175 v -1.0875 H 16.55 V 12.37 l -2.175,2.175 2.175,2.175 z"
      opacity="0.3"
      fill="#039BE5"
      id="path4"
      style="opacity:0.9" />
    <path
      d="m 20.91,14.55 c 0,2.40345 -1.95655,4.36 -4.36,4.36 -2.40345,0 -4.36,-1.95655 -4.36,-4.36 0,-2.40345 1.95655,-4.36 4.36,-4.36 2.40345,0 4.36,1.95655 4.36,4.36 m 1.09,0 C 22,11.5416 19.5584,9.1 16.55,9.1 c -3.0084,0 -5.45,2.4416 -5.45,5.45 0,3.0084 2.4416,5.45 5.45,5.45 3.0084,0 5.45,-2.4416 5.45,-5.45 z m -5.45,0.545 h 2.18 v -1.09 H 16.55 V 12.37 l -2.18,2.18 2.18,2.18 z"
      fill="#B3E5FC"
      id="path6" />
  </g>
</svg>